<svg xmlns="http://www.w3.org/2000/svg" viewBox="0 0 272.16 72.43"><defs><style>.cls-1{fill:#004e94;}.cls-1,.cls-2{fill-rule:evenodd;}.cls-2{fill:#f5d933;}.cls-3{fill:#fff;}</style></defs><title>LogUniverPrim</title><g id="Camada_1" data-name="Camada 1"><path class="cls-1" d="M87.62,23.33V51.12h5.84V32.54h0c0-.5,0-1.29-.08-2.37s-.14-2.23-.21-3.53c.14.94.36,1.8.5,2.66s.36,1.52.58,2.24h0l5.47,19.58h6l5.61-19.94h0c.15-.65.36-1.37.58-2.16s.29-1.59.5-2.38a23.62,23.62,0,0,0-.21,3c-.07.94-.07,1.88-.07,2.81h0V51.12h6.26V23.33h-10l-4.61,16.56h0a8.22,8.22,0,0,0-.43,2.23,27.4,27.4,0,0,0-.36,2.81c-.07-.94-.14-1.8-.21-2.67s-.29-1.58-.44-2.23h0l-4.6-16.7Z"/><path class="cls-1" d="M141.19,41.18c0-3.6-.79-6.4-2.45-8.28A8.27,8.27,0,0,0,131.9,30v4.32a3.31,3.31,0,0,1,2.6,1.23,5.16,5.16,0,0,1,1.15,3.24H131.9v4.17h9.29V41.18ZM131.9,51.62a4.61,4.61,0,0,0,1,.08,13.77,13.77,0,0,0,3.46-.36,14.15,14.15,0,0,0,3.24-.94h0v-5h0a16.21,16.21,0,0,1-3.17,1.3,10.64,10.64,0,0,1-2.88.43,6,6,0,0,1-1.66-.15Zm0-21.67h0a9.13,9.13,0,0,0-7.12,2.88,10.49,10.49,0,0,0-2.67,7.63c0,3.53.94,6.27,2.88,8.28a10.12,10.12,0,0,0,6.91,2.88V46.94a4.21,4.21,0,0,1-2.08-.93,4.57,4.57,0,0,1-1.52-3.1h3.6V38.74h-3.67a5.67,5.67,0,0,1,1.15-3.24,3.27,3.27,0,0,1,2.52-1.23h0Z"/><path class="cls-1" d="M152.71,23.47l-6,2.31v4.75h-3.89v5h3.53v7.34h0q0,4.65,1.72,6.7c1.08,1.37,2.88,2.09,5.4,2.09a17,17,0,0,0,1.88-.15c.64-.14,1.29-.21,2-.36h0l-.14-4.68h0a9.51,9.51,0,0,1-1,.29c-.22,0-.43.07-.58.07a2.62,2.62,0,0,1-2.23-.93,5.43,5.43,0,0,1-.72-3.24h0V35.57h4.54v-5h-4.54V23.47Z"/><path class="cls-1" d="M170.35,34.85a3.31,3.31,0,0,1,2.88,1.65,7.07,7.07,0,0,1,1.15,4.25A6.79,6.79,0,0,1,173.23,45a3.32,3.32,0,0,1-2.88,1.66v5a10.53,10.53,0,0,0,7.85-2.88c1.87-1.87,2.81-4.53,2.81-7.92a11.06,11.06,0,0,0-2.81-8A10.56,10.56,0,0,0,170.35,30Zm0,0Zm0-4.9Zm0,16.71A3.53,3.53,0,0,1,167.4,45a7.43,7.43,0,0,1-1.08-4.25,7.59,7.59,0,0,1,1.08-4.25,3.52,3.52,0,0,1,2.95-1.65V30c-3.31,0-6,.94-7.85,2.88a11.06,11.06,0,0,0-2.8,8c0,3.39.93,6,2.8,7.92s4.54,2.88,7.85,2.88v-5Zm0-11.81Zm0-4.9Z"/><path class="cls-1" d="M194.4,35.14a3.83,3.83,0,0,1,2.81,1.44,6.9,6.9,0,0,1,1.08,4.1,7,7,0,0,1-1,4,3.28,3.28,0,0,1-2.88,1.44v5a8.51,8.51,0,0,0,1.8-.86A7.83,7.83,0,0,0,199,47h0v4.1h5.69V21h-6.34V33.34h0a8.05,8.05,0,0,0-2.66-2.52,9.8,9.8,0,0,0-1.3-.58Zm-.14,0h.14v-4.9a7.46,7.46,0,0,0-2.23-.29,7,7,0,0,0-5.91,2.88C184.75,34.7,184,37.3,184,40.54a12.79,12.79,0,0,0,2.23,7.92,7.29,7.29,0,0,0,6,2.95,6.72,6.72,0,0,0,2.16-.29v-5h0a3.28,3.28,0,0,1-2.88-1.44,7,7,0,0,1-1-4,7.42,7.42,0,0,1,1-4,3.1,3.1,0,0,1,2.74-1.58Z"/><path class="cls-1" d="M209.45,30.53V51.12h6.41V30.53Zm0-9.51v5.76h6.41V21Z"/><path class="cls-1" d="M234.22,31a19.73,19.73,0,0,0-2.88-.79,12.25,12.25,0,0,0-2.81-.29,10,10,0,0,0-6.41,1.8,6.14,6.14,0,0,0-2.3,5A5.22,5.22,0,0,0,221,40.18a10.27,10.27,0,0,0,4,2.37c.29.07.65.22,1.15.36,1.87.65,2.88,1.37,2.88,2.16a1.44,1.44,0,0,1-.79,1.3,3.91,3.91,0,0,1-2.09.43,10,10,0,0,1-2.88-.43,14,14,0,0,1-2.81-1.15h0l-.36,5.32h0a24.49,24.49,0,0,0,3.24.87,18,18,0,0,0,3.39.29,10,10,0,0,0,6.33-1.88,6.42,6.42,0,0,0,2.24-5.18,5.6,5.6,0,0,0-1.16-3.82,9.07,9.07,0,0,0-4.1-2.44c-.36-.08-.72-.22-1.3-.36-1.72-.51-2.59-1.16-2.59-1.88a1.58,1.58,0,0,1,.58-1.29,2.81,2.81,0,0,1,1.8-.51,7.73,7.73,0,0,1,2.52.44A13.76,13.76,0,0,1,233.64,36h0l.58-5Z"/><path class="cls-1" d="M246.82,23.47l-6,2.31v4.75h-4v5h3.6v7.34h0c0,3.1.58,5.33,1.66,6.7s3,2.09,5.47,2.09a16.83,16.83,0,0,0,1.87-.15c.65-.14,1.3-.21,2-.36h0l-.15-4.68h0a9.51,9.51,0,0,1-1,.29c-.21,0-.43.07-.57.07a2.62,2.62,0,0,1-2.23-.93,5.35,5.35,0,0,1-.72-3.24h0V35.57h4.53v-5h-4.53V23.47Z"/><path class="cls-1" d="M265.1,41.76h1.08v.58h0a5.15,5.15,0,0,1-1.08,3.38A3.62,3.62,0,0,1,263,46.94v3.89a7.84,7.84,0,0,0,.79-.29,7.36,7.36,0,0,0,2.73-2.66h0l.15,3.24h5.47V40.32h0c0-3.6-.72-6.19-2.09-7.85s-3.67-2.59-6.69-2.59H263v4.54a5,5,0,0,1,2,.79,3.05,3.05,0,0,1,1.15,2.59h0v.29H263v3.74a18.56,18.56,0,0,1,2.08-.07ZM263,46.94c-.22,0-.51.08-.8.08a2.37,2.37,0,0,1-1.72-.72,2.32,2.32,0,0,1-.65-1.73,2.18,2.18,0,0,1,1.22-2.16,9.16,9.16,0,0,1,1.95-.58V38.09a13.1,13.1,0,0,0-6.84,1.65,5.77,5.77,0,0,0-2.38,5.12,6.65,6.65,0,0,0,1.66,4.68,5.66,5.66,0,0,0,4.46,1.8,8,8,0,0,0,3.1-.51V46.94Zm0-17.06v4.54a7.54,7.54,0,0,0-1.37-.08,8.74,8.74,0,0,0-2.52.44A15.18,15.18,0,0,0,256.18,36h0L256,31.32h0a23.61,23.61,0,0,1,3.39-1.08A25.48,25.48,0,0,1,263,29.88Z"/><path class="cls-1" d="M87.55,1.08V9.29h0a6.58,6.58,0,0,0,1.3,4.46,4.22,4.22,0,0,0,3.67,1.59,4.36,4.36,0,0,0,3.74-1.59,6.78,6.78,0,0,0,1.3-4.53h0V1.08H95.18V9.14h0a5.6,5.6,0,0,1-.64,3,2.22,2.22,0,0,1-2,1,2.15,2.15,0,0,1-1.94-.94,5.47,5.47,0,0,1-.65-3h0V1.08Z"/><path class="cls-1" d="M109,9a5.46,5.46,0,0,0-.87-3.31,2.73,2.73,0,0,0-2.44-1.08,3.36,3.36,0,0,0-1.88.5,3.77,3.77,0,0,0-1.36,1.59h0V4.9h-2.09V15.05h2.3V10h0a4.47,4.47,0,0,1,.58-2.38,1.89,1.89,0,0,1,1.58-.86,1.56,1.56,0,0,1,1.37.65,4.06,4.06,0,0,1,.43,2.08h0v5.55H109V9Z"/><path class="cls-1" d="M111.53,4.9V15.05h2.3V4.9Zm0-4.61V2.81h2.3V.29Z"/><polygon class="cls-1" points="115.42 4.9 118.66 15.05 121.39 15.05 124.7 4.9 122.33 4.9 120.1 12.67 117.94 4.9 115.42 4.9 115.42 4.9"/><path class="cls-1" d="M134.21,9.86A6.22,6.22,0,0,0,133.06,6,3.61,3.61,0,0,0,130,4.61h-.07V6.34H130a1.66,1.66,0,0,1,1.44.72A3.42,3.42,0,0,1,132.05,9h-2.16v1.66h4.32v-.8Zm-4.32,5.4h.43a6.39,6.39,0,0,0,1.66-.14,5,5,0,0,0,1.44-.43h0v-2h0a11.29,11.29,0,0,1-1.3.58,4.56,4.56,0,0,1-1.37.14,3.57,3.57,0,0,1-.86-.07Zm0-10.65a4,4,0,0,0-3.17,1.44,5.27,5.27,0,0,0-1.3,3.74,5.78,5.78,0,0,0,1.3,4,4.47,4.47,0,0,0,3.17,1.44V13.32a2,2,0,0,1-1.23-.65,2.81,2.81,0,0,1-.93-2h2.16V9h-2.16a4,4,0,0,1,.72-1.94,1.75,1.75,0,0,1,1.44-.72Z"/><path class="cls-1" d="M141.55,4.75c-.14-.07-.29-.07-.43-.14h-.36a2.49,2.49,0,0,0-1.58.57,3.84,3.84,0,0,0-1.08,1.73h0v-2H136V15.05h2.3V10.3h0a4.81,4.81,0,0,1,.58-2.52,2.09,2.09,0,0,1,1.8-.87.93.93,0,0,1,.43.07c.14,0,.22.08.36.08h0l.07-2.31Z"/><path class="cls-1" d="M148.9,5.18a14.59,14.59,0,0,0-1.52-.43,2.67,2.67,0,0,0-1-.14,4,4,0,0,0-2.67.86,2.44,2.44,0,0,0-1,2.16,2.48,2.48,0,0,0,.44,1.51A6,6,0,0,0,145,10.58h.07c1.15.65,1.8,1.23,1.8,1.73a.72.72,0,0,1-.43.72,1.49,1.49,0,0,1-1.08.29,10.11,10.11,0,0,1-1.37-.14,11.29,11.29,0,0,1-1.3-.58h0l-.14,2h0a8.54,8.54,0,0,0,1.37.36,5.52,5.52,0,0,0,1.51.14,4.4,4.4,0,0,0,2.81-.86,2.7,2.7,0,0,0,1-2.31,2.89,2.89,0,0,0-.51-1.73,6.08,6.08,0,0,0-2-1.36c-.08-.08-.15-.08-.29-.15-.94-.43-1.44-.93-1.44-1.37a1,1,0,0,1,.36-.72,1.93,1.93,0,0,1,1-.21,7.32,7.32,0,0,1,1.15.14,4.44,4.44,0,0,1,1.15.58h0l.22-1.95Z"/><path class="cls-1" d="M151.27,4.9V15.05h2.38V4.9Zm0-4.61V2.81h2.38V.29Z"/><path class="cls-1" d="M160.42,6.55a2.16,2.16,0,0,1,1.65.94,3.88,3.88,0,0,1,.65,2.37,4.29,4.29,0,0,1-.65,2.45,1.91,1.91,0,0,1-1.65.87v1.94a3.38,3.38,0,0,0,1.15-.5A3.61,3.61,0,0,0,162.94,13h0v2.09H165V0h-2.3V6.41h0A3.12,3.12,0,0,0,161.35,5a2.78,2.78,0,0,0-.93-.36Zm-.08,0h.08V4.68a3.11,3.11,0,0,0-.87-.07,3.36,3.36,0,0,0-2.73,1.44,5.91,5.91,0,0,0-1,3.74,6.53,6.53,0,0,0,1.08,3.89,3.26,3.26,0,0,0,2.73,1.51,2.84,2.84,0,0,0,.8-.07V13.18h0a1.73,1.73,0,0,1-1.59-.87,4,4,0,0,1-.65-2.45,3.88,3.88,0,0,1,.65-2.37,1.64,1.64,0,0,1,1.51-.94Z"/><path class="cls-1" d="M172.3,10.15h.79v.58h0a2.85,2.85,0,0,1-.58,1.94,2,2,0,0,1-1.29.72v1.73a2.81,2.81,0,0,0,.64-.29,4.29,4.29,0,0,0,1.37-1.44h0l.07,1.66h2.09V9.22h0a5.93,5.93,0,0,0-.93-3.53,3.89,3.89,0,0,0-3-1.08h-.21v1.8a1.78,1.78,0,0,1,1.29.5,2.05,2.05,0,0,1,.58,1.66h0v.14h-1.87v1.51c.36,0,.64-.07,1.08-.07Zm-1.08,3.24a.57.57,0,0,1-.36.07,1.43,1.43,0,0,1-1.08-.43,1.75,1.75,0,0,1-.36-1.08,1.56,1.56,0,0,1,.72-1.37,4,4,0,0,1,1.08-.36V8.71a6.56,6.56,0,0,0-3,.79,3,3,0,0,0-1.15,2.6,3.46,3.46,0,0,0,.79,2.3,3,3,0,0,0,2.24.86,5,5,0,0,0,1.08-.14V13.39Zm0-8.78v1.8a.57.57,0,0,0-.36-.07,4.16,4.16,0,0,0-1.3.21,5.85,5.85,0,0,0-1.3.65h0l-.07-1.87h0c.58-.22,1.08-.43,1.59-.58A10.92,10.92,0,0,1,171.22,4.61Z"/><path class="cls-1" d="M182.09,6.55a2.15,2.15,0,0,1,1.58.94,3.88,3.88,0,0,1,.65,2.37,4.29,4.29,0,0,1-.65,2.45,1.88,1.88,0,0,1-1.58.87v1.94a3.74,3.74,0,0,0,1.08-.5A3.61,3.61,0,0,0,184.54,13h0v2.09h2.08V0h-2.3V6.41h0A3.39,3.39,0,0,0,183,5a4.82,4.82,0,0,0-.93-.36Zm-.15,0h.15V4.68a3.65,3.65,0,0,0-.87-.07,3.39,3.39,0,0,0-2.8,1.44,5.91,5.91,0,0,0-1,3.74,6.53,6.53,0,0,0,1.08,3.89,3.26,3.26,0,0,0,2.73,1.51,3.65,3.65,0,0,0,.87-.07V13.18H182a1.81,1.81,0,0,1-1.59-.87,4,4,0,0,1-.65-2.45,3.88,3.88,0,0,1,.65-2.37,1.71,1.71,0,0,1,1.51-.94Z"/><path class="cls-1" d="M197.5,9.86A6.22,6.22,0,0,0,196.34,6a3.6,3.6,0,0,0-3.09-1.37h-.07V6.34h.07a1.67,1.67,0,0,1,1.44.72A3.5,3.5,0,0,1,195.34,9h-2.16v1.66h4.32v-.8Zm-4.32,5.4h.43a6.31,6.31,0,0,0,1.65-.14,4.82,4.82,0,0,0,1.44-.43h0v-2h0a10.45,10.45,0,0,1-1.29.58,4.56,4.56,0,0,1-1.37.14,3.53,3.53,0,0,1-.86-.07Zm0-10.65A4,4,0,0,0,190,6.05a5.22,5.22,0,0,0-1.3,3.74,5.73,5.73,0,0,0,1.3,4,4.47,4.47,0,0,0,3.17,1.44V13.32a2,2,0,0,1-1.23-.65,2.81,2.81,0,0,1-.93-2h2.16V9H191a3.43,3.43,0,0,1,.72-1.94,1.75,1.75,0,0,1,1.44-.72Z"/><path class="cls-2" d="M30.46,35.86A6.09,6.09,0,0,1,32,37.8h0l.29.36h0a6.78,6.78,0,0,1-1.66,8.64A6.73,6.73,0,0,1,39,49.68h0l.22.43h0A7.25,7.25,0,0,1,40,52.49a6,6,0,0,1,.87-2.38h0l.21-.43h0a6.71,6.71,0,0,1,8.28-2.88,6.76,6.76,0,0,1-1.65-8.64h0l.21-.43h0a6.77,6.77,0,0,1,1.66-1.87,6.93,6.93,0,0,1-2.45.43h-.5A6.74,6.74,0,0,1,40,30.6a6.74,6.74,0,0,1-6.69,5.69H32.9a6.87,6.87,0,0,1-2.44-.43Z"/><path class="cls-3" d="M40,53.49a1,1,0,0,1-1-.82,6.25,6.25,0,0,0-.74-2l-.25-.5a5.75,5.75,0,0,0-7-2.4A1,1,0,0,1,30,46a5.78,5.78,0,0,0,1.45-7.3l-.23-.3a.71.71,0,0,1-.1-.14,4.91,4.91,0,0,0-1.32-1.63,1,1,0,0,1,1-1.72,5.79,5.79,0,0,0,2.07.36h.44A5.72,5.72,0,0,0,39,30.45a1,1,0,0,1,2,0,5.75,5.75,0,0,0,5.64,4.84h.5a5.81,5.81,0,0,0,2.08-.36,1,1,0,0,1,1,1.72,5.8,5.8,0,0,0-1.41,1.59l-.18.37A5.81,5.81,0,0,0,50,46a1,1,0,0,1-1,1.71,5.73,5.73,0,0,0-7,2.45l-.19.38-.07.13a4.76,4.76,0,0,0-.7,2A1,1,0,0,1,40,53.49Zm-6.82-8.17a7.73,7.73,0,0,1,6.61,3.86l.21.42h0l.19-.37a7.76,7.76,0,0,1,6.64-3.89,7.82,7.82,0,0,1,0-7.67l.19-.38h-.39A7.75,7.75,0,0,1,40,33.5a7.74,7.74,0,0,1-6.7,3.79h-.43l.2.24.09.14A7.81,7.81,0,0,1,33.21,45.32Z"/><path class="cls-1" d="M40,52.49h0a6,6,0,0,1,.87-2.38h0l.21-.43h0a6.71,6.71,0,0,1,8.28-2.88,6.76,6.76,0,0,1-1.65-8.64h0l.21-.43h0a6.77,6.77,0,0,1,1.66-1.87,6.93,6.93,0,0,1-2.45.43h-.5A6.74,6.74,0,0,1,40,30.6V0h0c1.15,0,2.31.07,3.46.14h0V20.59h0c0,1.23.72,2.16,1.65,2.16s1.59-.93,1.59-2.16h0V.58h0a37.91,37.91,0,0,1,7.13,1.87h0V29.59h0a6.76,6.76,0,0,1-2.52,5.26,6.68,6.68,0,0,1,5.83.43h0l23,13.25h0a38.83,38.83,0,0,1-2.09,7h0L61.42,46h0a2,2,0,0,0-2.74.29,2,2,0,0,0,1.08,2.52h0l17,9.79h0a34.5,34.5,0,0,1-3.53,5.9h0L56.38,54.79h0c-1.08-.57-2.31-.5-2.74.29s0,1.94,1.08,2.59h0l16.49,9.51h0A45.14,45.14,0,0,1,66,72.36h0l-22.61-13h0A6.82,6.82,0,0,1,40,54.43h0ZM30.46,35.86A6.09,6.09,0,0,1,32,37.8h0l.29.36h0a6.78,6.78,0,0,1-1.66,8.64A6.73,6.73,0,0,1,39,49.68h0l.22.43h0A6.65,6.65,0,0,1,40,52.49v1.94a6.69,6.69,0,0,1-3.31,4.9h0l-22.54,13h0a44.89,44.89,0,0,1-5.32-5.18h0l16.48-9.51h0c1.08-.65,1.59-1.8,1.08-2.59s-1.65-.86-2.73-.29h0L6.84,64.51h0a43.62,43.62,0,0,1-3.53-5.9h0l16.92-9.79h0a2,2,0,0,0,1.15-2.52A2,2,0,0,0,18.65,46h0L2,55.58H2a38.7,38.7,0,0,1-2-7H0L22.9,35.28h0a6.66,6.66,0,0,1,5.83-.43,6.58,6.58,0,0,1-2.59-5.26h0V2.45h0A47.14,47.14,0,0,1,33.26.58h0v20h0a2,2,0,0,0,1.66,2.16c.94,0,1.66-.93,1.66-2.16h0V.14h0C37.73.07,38.88,0,40,0V30.6h0a6.74,6.74,0,0,1-6.69,5.69H32.9a6.87,6.87,0,0,1-2.44-.43Z"/><path class="cls-1" d="M92.23,63.72a2,2,0,0,1,1.66.86A4.75,4.75,0,0,1,94.46,67a4.47,4.47,0,0,1-.57,2.38,2,2,0,0,1-1.66.86v2a2,2,0,0,0,1.08-.51,4.36,4.36,0,0,0,1.44-1.58h0v2h2.09v-15H94.46V63.5h0a4.8,4.8,0,0,0-1.29-1.36,3.4,3.4,0,0,0-.94-.36Zm-.07-.07.07.07V61.78c-.29,0-.57-.08-.86-.08a3.22,3.22,0,0,0-2.74,1.44,6.11,6.11,0,0,0-1.08,3.75,6.55,6.55,0,0,0,1.08,3.89,3.33,3.33,0,0,0,2.81,1.51,3,3,0,0,0,.79-.07v-2h0a1.92,1.92,0,0,1-1.65-.86A4.47,4.47,0,0,1,90,67a4.93,4.93,0,0,1,.58-2.45,2,2,0,0,1,1.58-.93Z"/><path class="cls-1" d="M107.64,67a6.25,6.25,0,0,0-1.08-3.89,3.94,3.94,0,0,0-3.1-1.37h-.07v1.73h.07a1.69,1.69,0,0,1,1.44.72,3.93,3.93,0,0,1,.65,2h-2.16v1.58h4.25V67Zm-4.25,5.4a1,1,0,0,0,.43.07,13.28,13.28,0,0,0,1.66-.14,11.8,11.8,0,0,0,1.44-.51h0v-2h0a5.51,5.51,0,0,1-2.74.79c-.28,0-.57-.07-.79-.07Zm0-10.66a4.18,4.18,0,0,0-3.24,1.44,6.65,6.65,0,0,0,.07,7.78,4.12,4.12,0,0,0,3.17,1.44V70.49a2.94,2.94,0,0,1-1.29-.72,3,3,0,0,1-.87-2h2.16V66.17h-2.16a3.4,3.4,0,0,1,.72-2,1.7,1.7,0,0,1,1.44-.72Z"/><path class="cls-1" d="M122.18,58.61a3.29,3.29,0,0,0-.64-.22,9.26,9.26,0,0,0-2.31-.43A5,5,0,0,0,115.85,59a3.67,3.67,0,0,0-1.23,2.81,4,4,0,0,0,.22,1.37,3.88,3.88,0,0,0,.65,1.22A9.42,9.42,0,0,0,117.58,66c.14.08.21.08.28.15a1.13,1.13,0,0,0,.22.14c1.3.79,2,1.51,2,2.23a1.64,1.64,0,0,1-.65,1.3,2.82,2.82,0,0,1-1.66.5,3.31,3.31,0,0,1-1.29-.28,16.28,16.28,0,0,1-1.73-.8h0l-.22,2.38h0c.07,0,.15.07.29.14a11.9,11.9,0,0,0,3,.65,4.71,4.71,0,0,0,3.53-1.22,4,4,0,0,0,1.3-3.1,4.13,4.13,0,0,0-.65-2.3,9.32,9.32,0,0,0-2.59-2c-.08,0-.15-.07-.29-.14-1.37-.72-2-1.44-2-2a1.25,1.25,0,0,1,.58-1.15,2.34,2.34,0,0,1,1.51-.43,4.32,4.32,0,0,1,1.37.21,12.43,12.43,0,0,1,1.44.51h0l.21-2.16Z"/><path class="cls-1" d="M130.46,57.67a1.13,1.13,0,0,1-.28.58.68.68,0,0,1-.51.21h-.21c-.08,0-.15-.07-.29-.07h0l-.79-.29v1.52l.57.14h0a.45.45,0,0,0,.29.07.56.56,0,0,0,.36.07,1.37,1.37,0,0,0,1.08-.57,4.58,4.58,0,0,0,.72-1.66h-.94Zm-2.08,14.55V70.56a1.77,1.77,0,0,0,1.22-.79,2.91,2.91,0,0,0,.65-2h0v-.5h-.79a5.2,5.2,0,0,0-1.08.07V65.81h1.87v-.15h0a2.11,2.11,0,0,0-.58-1.58,1.86,1.86,0,0,0-1.29-.58V61.7h.21a3.39,3.39,0,0,1,2.95,1.16,5.15,5.15,0,0,1,.94,3.52h0v5.76h-2l-.07-1.65h0A3.73,3.73,0,0,1,129,71.93,3,3,0,0,1,128.38,72.22Zm0-14.12h0A.68.68,0,0,0,128,58a.57.57,0,0,0-.36-.07,1.35,1.35,0,0,0-1.08.58,2.91,2.91,0,0,0-.72,1.58h.93a1.51,1.51,0,0,1,.29-.58,1.38,1.38,0,0,1,.58-.14h.21c.07,0,.15.07.29.07h0l.22.15V58.1Zm0,3.6v1.8H128a8.09,8.09,0,0,0-1.3.15,7.56,7.56,0,0,0-1.37.65h0V62.42h0a7,7,0,0,1,1.59-.5,5.48,5.48,0,0,1,1.44-.22Zm0,4.11v1.58a2.38,2.38,0,0,0-1.08.36,1.43,1.43,0,0,0-.8,1.3,1.47,1.47,0,0,0,.44,1.08,1.43,1.43,0,0,0,1.08.43h.36v1.66a3,3,0,0,1-1.08.21,3.07,3.07,0,0,1-2.24-.93,3.19,3.19,0,0,1-.86-2.31,2.9,2.9,0,0,1,1.22-2.52A5.56,5.56,0,0,1,128.38,65.81Z"/><path class="cls-1" d="M139.25,63.58a2.15,2.15,0,0,1,1.73.93,5.28,5.28,0,0,1,0,5,2.06,2.06,0,0,1-1.73.87h0v2h0A4.56,4.56,0,0,0,142.78,71a5.55,5.55,0,0,0,1.36-4,5.28,5.28,0,0,0-1.36-3.89,4.59,4.59,0,0,0-3.53-1.44h0v1.88Zm0,6.84a2,2,0,0,1-1.73-.94,4.14,4.14,0,0,1-.65-2.45,4.53,4.53,0,0,1,.65-2.52,2.13,2.13,0,0,1,1.73-.93V61.7a4.23,4.23,0,0,0-3.46,1.44A5.28,5.28,0,0,0,134.42,67a5.55,5.55,0,0,0,1.37,4,4.29,4.29,0,0,0,3.46,1.44Z"/><path class="cls-1" d="M155.81,60.26a1.67,1.67,0,0,1,1.15.58,2.12,2.12,0,0,1,.58,1.73A2.65,2.65,0,0,1,157,64.3a2.16,2.16,0,0,1-1.15.5v2a4.87,4.87,0,0,0,3-1.08,4,4,0,0,0,1.23-3.17,4,4,0,0,0-1.16-3.24,4.62,4.62,0,0,0-3.09-1.08Zm-1.73-.07h1.15a1.65,1.65,0,0,1,.58.07v-2h-4.25V72.14h2.52V66.82h1.73v-2a2.29,2.29,0,0,1-.72.07h-1V60.19Z"/><path class="cls-1" d="M166.39,67.32h.79v.5h0a2.87,2.87,0,0,1-.57,2,2.11,2.11,0,0,1-1.23.79v1.66a2.88,2.88,0,0,0,.65-.29,4.15,4.15,0,0,0,1.3-1.44h0l.07,1.65h2.09V66.38h0a5.55,5.55,0,0,0-.94-3.52,3.64,3.64,0,0,0-3-1.16h-.15v1.8a1.84,1.84,0,0,1,1.23.58,1.87,1.87,0,0,1,.57,1.58h0v.15h-1.8v1.58a4.58,4.58,0,0,1,1-.07Zm-1,3.24H165a1.27,1.27,0,0,1-1.08-.43,1.5,1.5,0,0,1-.43-1.08,1.38,1.38,0,0,1,.72-1.3,2.48,2.48,0,0,1,1.15-.36V65.81a5.82,5.82,0,0,0-3,.86,2.85,2.85,0,0,0-1.15,2.52A3.47,3.47,0,0,0,162,71.5a3.19,3.19,0,0,0,2.23.93,3.06,3.06,0,0,0,1.15-.21V70.56Zm0-8.86v1.8H165a8.26,8.26,0,0,0-1.22.15,5.68,5.68,0,0,0-1.37.65h0l-.07-1.88h0a7.42,7.42,0,0,1,1.65-.5A4.82,4.82,0,0,1,165.38,61.7Z"/><path class="cls-1" d="M171.86,62v6h0a5.37,5.37,0,0,0,.8,3.24,2.9,2.9,0,0,0,2.44,1.08,3.6,3.6,0,0,0,2-.51,4.79,4.79,0,0,0,1.29-1.58h0v1.94h2.16V62h-2.37v4.54h0a5.47,5.47,0,0,1-.51,2.66,1.83,1.83,0,0,1-1.65.94,1.59,1.59,0,0,1-1.37-.65,3.91,3.91,0,0,1-.43-2.09h0V62Z"/><polygon class="cls-1" points="183.24 57.17 183.24 72.14 185.54 72.14 185.54 57.17 183.24 57.17 183.24 57.17"/><path class="cls-1" d="M192.53,63.58a2.15,2.15,0,0,1,1.73.93,5.28,5.28,0,0,1,0,5,2.06,2.06,0,0,1-1.73.87h0v2h0A4.56,4.56,0,0,0,196.06,71a5.84,5.84,0,0,0,1.29-4,5.55,5.55,0,0,0-1.29-3.89,4.59,4.59,0,0,0-3.53-1.44h0v1.88Zm0,6.84a2,2,0,0,1-1.73-.94,4.14,4.14,0,0,1-.72-2.45,4.55,4.55,0,0,1,.72-2.52,2.13,2.13,0,0,1,1.73-.93V61.7a4.73,4.73,0,0,0-3.6,1.44,5.51,5.51,0,0,0-1.3,3.89,5.8,5.8,0,0,0,1.3,4,4.7,4.7,0,0,0,3.6,1.44Z"/></g></svg>